<?xml version="1.0" encoding="utf-8"?>
<svg viewBox="14 46 476 380.799" xmlns="http://www.w3.org/2000/svg">
  <path d="M 323.401 176.9 C 323.401 104.607 254.158 46 168.701 46 C 83.245 46 14.001 104.607 14.001 176.9 C 14.001 206.329 25.618 233.395 44.994 255.291 C 32.804 279.656 15.817 297.923 15.549 298.191 C 13.987 299.83 13.562 302.263 14.477 304.403 C 15.415 306.535 17.424 307.799 19.698 307.799 C 48.221 307.799 72.326 299.529 90.905 289.919 C 113.812 301.18 140.29 307.799 168.701 307.799 C 254.158 307.799 323.401 249.192 323.401 176.9 Z M 459.953 376.001 C 478.695 353.837 490 326.095 490 295.899 C 490 223.607 426.038 165 347.2 165 C 346.966 165 346.74 165.03 346.507 165.031 C 346.829 168.942 347.2 172.884 347.2 176.9 C 347.2 250.248 287.939 311.666 208.789 327.508 C 224.259 384.48 279.594 426.799 347.2 426.799 C 372.257 426.799 395.782 420.843 416.257 410.452 C 434.368 419.361 457.349 426.799 484.273 426.799 C 486.548 426.799 488.557 425.517 489.495 423.374 C 490.409 421.233 489.984 418.801 488.423 417.16 C 488.215 416.908 472.076 399.504 459.953 376.001 Z" style="fill: rgb(255, 255, 255);"/>
</svg>