<?xml version="1.0" encoding="utf-8"?>
<svg viewBox="0 0 500 500" xmlns="http://www.w3.org/2000/svg">
  <path d="M 247.5 394.33 C 232.368 394.33 217.125 390.542 204.191 380.361 L 11 240.789 L 11 437.657 C 11 462.139 30.862 482.001 55.344 482.001 L 439.656 482.001 C 464.138 482.001 484 462.139 484 438.489 L 484 240.789 L 290.828 380.38 C 277.894 389.618 262.651 394.33 247.5 394.33 Z M 467.002 159.585 C 458.872 153.118 451.112 147.113 439.656 138.429 L 439.656 97.67 C 439.656 73.188 419.794 53.326 395.313 53.326 L 323.716 53.327 C 320.829 51.248 318.288 49.401 315.286 47.322 C 299.789 35.912 269.025 8.656 247.5 9.003 C 226.067 8.656 195.211 35.912 179.691 47.34 C 176.689 49.418 174.148 51.266 171.261 53.345 L 99.688 53.345 C 75.206 53.345 55.344 73.207 55.344 97.688 L 55.344 138.448 C 43.916 147.113 36.174 153.118 27.98 159.585 C 17.236 167.899 11 180.833 11 194.506 L 11 204.317 L 99.688 268.403 L 99.688 97.688 L 395.313 97.688 L 395.313 268.319 L 484 204.234 L 484 194.506 C 484 180.833 477.81 167.899 467.002 159.585 Z M 173.594 244.669 L 321.406 244.669 C 329.569 244.669 336.188 238.051 336.188 230.72 C 336.188 222.555 329.569 215.938 321.406 215.938 L 173.594 215.938 C 165.431 215.938 158.813 222.555 158.813 230.72 C 158.813 238.849 165.464 244.669 173.594 244.669 Z M 173.594 185.544 L 321.406 185.544 C 329.569 185.544 336.188 178.926 336.188 170.763 C 336.188 162.598 329.569 156.813 321.406 156.813 L 173.594 156.813 C 165.431 156.813 158.813 163.43 158.813 170.763 C 158.813 179.724 165.464 185.544 173.594 185.544 Z" style="fill: rgb(255, 255, 255);"/>
</svg>