<?xml version="1.0" encoding="utf-8"?>
<svg viewBox="0 0 500 500" xmlns="http://www.w3.org/2000/svg" xmlns:bx="https://boxy-svg.com">
  <path d="M 275.375 180.079 C 265.538 172.096 251.058 173.5 243.077 183.34 C 234.99 193.191 236.424 207.642 246.283 215.68 C 257.105 224.534 263.326 237.394 263.326 250.965 C 263.326 264.546 257.105 277.398 246.283 286.249 C 236.443 294.296 235.008 308.769 243.053 318.578 C 247.568 324.14 254.172 327.011 260.815 327.011 C 265.928 327.011 271.103 325.308 275.353 321.838 C 296.913 304.19 309.268 278.389 309.268 250.971 C 309.268 223.554 296.909 197.784 275.375 180.079 Z M 333.275 108.495 C 323.494 100.51 309.024 101.886 300.946 111.695 C 292.902 121.504 294.337 135.974 304.146 144.023 C 336.57 170.609 355.165 209.271 355.165 250.155 C 355.165 291.039 336.56 329.672 304.146 356.287 C 294.337 364.332 292.902 378.806 300.946 388.615 C 305.492 394.148 312.067 397.018 318.709 397.018 C 323.852 397.018 328.996 395.314 333.275 391.815 C 376.435 357.318 401.127 305.639 401.127 250.133 C 401.127 194.627 376.435 144.671 333.275 108.495 Z M 391.939 37.724 C 382.158 29.74 367.688 31.145 359.612 40.925 C 351.567 50.735 353.003 65.205 362.812 73.253 C 416.342 117.108 447.063 181.899 447.063 250.133 C 447.063 318.367 416.353 384.019 362.788 427.849 C 352.979 435.894 351.544 450.368 359.588 460.178 C 364.134 465.71 370.709 468.58 377.35 468.58 C 382.494 468.58 387.638 466.877 391.917 463.376 C 456.155 411.58 493 333.872 493 250.133 C 493 166.394 456.155 90.36 391.939 37.724 Z M 147.806 173.094 C 157.184 174.051 167.712 168.213 171.444 158.738 L 203.743 77.985 C 207.81 67.584 203.12 54.903 194.604 49.888 L 130.034 9.531 C 120.914 3.81 109.143 5.145 101.487 12.776 C -29.834 144.097 -29.825 357.893 101.487 489.194 C 109.126 496.835 120.837 498.17 129.959 492.449 L 194.536 452.074 C 203.891 446.232 207.839 434.398 203.722 424.033 L 171.444 343.347 C 167.668 333.811 157.913 327.929 147.778 329.018 L 96.826 334.104 C 78.51 280.375 78.51 221.71 96.855 168.021 L 147.806 173.094 Z" style="fill: rgb(255, 255, 255);" bx:origin="0.486938 0.5"/>
</svg>