<?xml version="1.0" encoding="utf-8"?>
<svg viewBox="0 0 500 500" xmlns="http://www.w3.org/2000/svg">
  <rect x="101.974" y="101.896" width="300.252" height="290.454" style="stroke: rgb(26, 34, 35); fill: rgb(26, 34, 35);"/>
  <path d="M 409 25 L 89 25 C 53.65 25 25 53.65 25 89 L 25 409 C 25 444.34 53.65 473 89 473 L 409 473 C 444.35 473 473 444.34 473 409 L 473 89 C 473 53.65 444.3 25 409 25 Z M 337.3 266.6 L 225.3 370.6 C 220.8 374.8 214.9 377 209 377 C 205.75 377 202.5 376.344 199.406 375 C 190.7 371.2 185 362.5 185 353 L 185 145 C 185 135.469 190.656 126.81 199.41 123 C 208.16 119.25 218.35 120.938 225.35 127.406 L 337.35 231.406 C 342.2 235.1 345 242.3 345 249 C 345 255.7 342.2 262 337.3 266.6 Z" style="fill: rgb(84, 172, 210);"/>
</svg>