<?xml version="1.0" encoding="utf-8"?>
<svg viewBox="0 0 500 500" xmlns="http://www.w3.org/2000/svg">
  <path d="M 26 90 L 26 410 C 26 445.35 54.65 474 90 474 L 410 474 C 445.35 474 474 445.35 474 410 L 474 90 C 474 54.65 445.35 26 410 26 L 90 26 C 54.65 26 26 54.65 26 90 Z M 131.5 297.6 L 185.74 274.35 C 192.131 271.584 199.64 273.444 203.98 278.834 L 226 305.744 C 260.63 288.744 288.77 260.604 305.77 225.994 L 278.86 203.944 C 273.485 199.553 271.649 192.114 274.368 185.724 L 297.638 131.444 C 300.685 124.491 308.228 120.674 315.568 122.382 L 365.948 134.012 C 373.073 135.637 378.058 141.903 378.058 149.232 C 378.058 275.332 275.458 378.032 149.358 378.032 C 142.022 378.032 135.758 373.048 134.118 365.922 L 122.498 315.532 C 120.71 308.2 124.5 300.6 131.5 297.6 Z" style="fill: rgb(255, 255, 255);"/>
</svg>