<?xml version="1.0" encoding="utf-8"?>
<svg viewBox="0 0 500 500" xmlns="http://www.w3.org/2000/svg">
  <rect x="101.974" y="101.896" width="300.252" height="290.454" style="stroke: rgb(26, 34, 35); fill: rgb(84, 172, 210);"/>
  <path d="M 409 25 L 89 25 C 53.65 25 25 53.65 25 89 L 25 409 C 25 444.34 53.65 473 89 473 L 409 473 C 444.35 473 473 444.34 473 409 L 473 89 C 473 53.65 444.3 25 409 25 Z M 313 353 C 313 362.531 307.344 371.19 298.59 375 C 295.5 376.3 292.3 377 289 377 C 283.062 377 277.19 374.781 272.66 370.594 L 160.66 266.594 C 155.8 262 153 255.7 153 249 C 153 242.3 155.781 235.97 160.656 231.41 L 272.656 127.41 C 279.687 120.941 289.876 119.254 298.596 123.004 C 307.3 126.8 313 135.5 313 145 L 313 353 Z" style="fill: rgb(26, 34, 35);"/>
</svg>