<?xml version="1.0" encoding="utf-8"?>
<svg viewBox="0 0 500 500" xmlns="http://www.w3.org/2000/svg">
  <path d="M 112.75 170.409 L 54.25 170.409 C 38.099 170.409 25 183.508 25 198.836 L 25 402.764 C 25 418.915 38.099 431.191 54.25 431.191 L 112.75 431.191 C 128.902 431.191 142 418.093 142 402.764 L 142 199.659 C 142 184.303 128.929 170.409 112.75 170.409 Z M 493 203.224 C 493 169.504 465.532 142.055 431.785 142.055 L 340.507 142.055 C 349.218 119.222 354.063 99.478 354.063 87.869 C 354.063 56.974 330.114 25 290.023 25 C 247.419 25 235.765 54.652 226.395 78.473 C 197.456 152.055 171.25 139.157 171.25 163.91 C 171.25 175.647 180.72 185.838 193.206 185.838 C 198.01 185.838 202.849 184.265 206.889 181.03 C 277.053 124.934 259.878 68.875 290.023 68.875 C 304.721 68.875 310.188 80.529 310.188 87.878 C 310.188 94.646 303.246 124.03 286.833 153.316 C 284.963 156.649 284.031 160.342 284.031 164.029 C 284.031 176.753 294.478 185.144 305.968 185.144 L 431.743 185.144 C 441.356 185.948 449.125 193.718 449.125 203.224 C 449.125 212.19 442.026 219.704 432.974 220.326 C 421.402 221.111 412.535 230.746 412.535 242.209 C 412.535 256.349 422.946 256.788 422.946 268.634 C 422.946 291.824 390.927 279.914 390.927 307.162 C 390.927 317.418 396.769 319.072 396.769 327.5 C 396.769 348.213 369.558 340.077 369.558 364.647 C 369.558 368.774 370.572 370.096 370.572 373.291 C 370.572 382.843 362.788 390.612 353.233 390.612 L 305.217 390.612 C 281.799 390.612 258.581 382.874 239.861 368.848 L 206.352 343.703 C 202.408 340.736 197.787 339.305 193.208 339.305 C 180.548 339.305 171.243 349.707 171.243 361.279 C 171.243 367.94 174.27 374.46 180.014 378.765 L 213.533 403.92 C 239.805 423.604 272.345 434.482 305.252 434.482 L 353.267 434.482 C 385.561 434.482 412.096 409.354 414.327 377.627 C 430.57 366.448 440.679 347.911 440.679 327.509 C 440.679 324.725 440.479 321.927 440.093 319.171 C 456.4 308.065 466.857 289.391 466.857 268.642 C 466.857 263.787 466.272 259.007 465.143 254.346 C 481.94 242.62 493 224.43 493 203.224 Z" style="fill: rgb(255, 255, 255);"/>
</svg>