<?xml version="1.0" encoding="utf-8"?>
<svg viewBox="0 0 500 500" xmlns="http://www.w3.org/2000/svg">
  <path d="M 410.399 88.923 C 368.499 46.923 312.699 23.823 253.399 23.823 C 130.999 23.823 31.399 123.423 31.399 245.823 C 31.399 284.923 41.599 323.123 60.999 356.823 L 29.499 471.823 L 147.199 440.923 C 179.599 458.623 216.099 467.923 253.299 467.923 L 253.399 467.923 C 375.699 467.923 477.499 368.323 477.499 245.923 C 477.499 186.623 452.299 130.923 410.399 88.923 L 410.399 88.923 Z M 253.399 430.523 C 220.199 430.523 187.699 421.623 159.399 404.823 L 152.699 400.823 L 82.899 419.123 L 101.499 351.023 L 97.099 344.023 C 78.599 314.623 68.899 280.723 68.899 245.823 C 68.899 144.123 151.699 61.323 253.499 61.323 C 302.799 61.323 349.099 80.523 383.899 115.423 C 418.699 150.323 440.099 196.623 439.999 245.923 C 439.999 347.723 355.099 430.523 253.399 430.523 L 253.399 430.523 Z M 354.599 292.323 C 349.099 289.523 321.799 276.123 316.699 274.323 C 311.599 272.423 307.899 271.523 304.199 277.123 C 300.499 282.723 289.899 295.123 286.599 298.923 C 283.399 302.623 280.099 303.123 274.599 300.323 C 241.999 284.023 220.599 271.223 199.099 234.323 C 193.399 224.523 204.799 225.223 215.399 204.023 C 217.199 200.323 216.299 197.123 214.899 194.323 C 213.499 191.523 202.399 164.223 197.799 153.123 C 193.299 142.323 188.699 143.823 185.299 143.623 C 182.099 143.423 178.399 143.423 174.699 143.423 C 170.999 143.423 164.999 144.823 159.899 150.323 C 154.799 155.923 140.499 169.323 140.499 196.623 C 140.499 223.923 160.399 250.323 163.099 254.023 C 165.899 257.723 202.199 313.723 257.899 337.823 C 293.099 353.023 306.899 354.323 324.499 351.723 C 335.199 350.123 357.299 338.323 361.899 325.323 C 366.499 312.323 366.499 301.223 365.099 298.923 C 363.799 296.423 360.099 295.023 354.599 292.323 Z" style="fill: rgb(255, 255, 255);"/>
</svg>